# xmcd
#
# Track frame offsets: 
#        150
#        18835
#        36929
#        57906
#        74951
#        96900
#        116887
#        138834
#        157961
#        178613
#        199820
#        222057
#
# Disc length: 3219 seconds
#
# Revision: 0
# Processed by: cddbd v1.5.1PL0 Copyright (c) Steve Scherf et al.
# Submitted via: ExactAudioCopy v0.95a5
#
DISCID=ae0c910c
DTITLE=SWV - Release Some Tension
DYEAR=1900
DGENRE=R&B
TTITLE0=Someone
TTITLE1=Release Some Tension
TTITLE2=Lose My Cool
TTITLE3=Love Like This
TTITLE4=Can We
TTITLE5=Rain
TTITLE6=Give It Up
TTITLE7=Come And Get Some
TTITLE8=When U Cry
TTITLE9=Lose Myself
TTITLE10=Here For You
TTITLE11=Gettin´ Funky
EXTD=
EXTT0=
EXTT1=
EXTT2=
EXTT3=
EXTT4=
EXTT5=
EXTT6=
EXTT7=
EXTT8=
EXTT9=
EXTT10=
EXTT11=
PLAYORDER=
